<svg version="1.1" id="Layer_1" xmlns="http://www.w3.org/2000/svg" xmlns:xlink="http://www.w3.org/1999/xlink" x="0px" y="0px"
	 width="100%" viewBox="0 0 511 511" enable-background="new 0 0 511 511" xml:space="preserve">
<path fill="#000000" opacity="1.000000" stroke="none" 
	d="
M329.000000,512.000000 
	C219.333328,512.000000 110.166664,512.000000 1.000000,512.000000 
	C1.000000,341.666656 1.000000,171.333328 1.000000,1.000000 
	C171.333328,1.000000 341.666656,1.000000 512.000000,1.000000 
	C512.000000,171.333328 512.000000,341.666656 512.000000,512.000000 
	C451.166656,512.000000 390.333344,512.000000 329.000000,512.000000 
M158.992645,189.508011 
	C164.513702,197.544540 171.446045,202.514832 181.826553,200.065308 
	C182.048447,200.012955 182.371017,200.387253 182.643661,200.567459 
	C183.071747,202.511429 183.160980,204.625244 184.025665,206.350372 
	C184.848007,207.991028 186.222916,209.943542 187.802948,210.510788 
	C193.748901,212.645416 195.542862,215.567993 193.118027,221.503403 
	C191.969879,224.313843 192.609207,225.958115 194.533646,227.981720 
	C201.995407,235.828094 209.302322,243.821930 216.650772,251.775742 
	C218.853043,254.159454 221.514099,256.310638 223.035675,259.079102 
	C224.617935,261.957977 226.234177,263.353210 229.552475,262.887543 
	C232.035400,262.539032 234.169983,262.612396 235.495712,265.800201 
	C238.116470,272.102020 237.375488,274.721802 231.367065,278.293762 
	C229.437958,279.440582 226.738800,281.288147 226.545212,283.051514 
	C224.457520,302.067841 223.371124,321.205902 220.899475,340.165771 
	C216.555618,373.487061 211.472153,406.712494 206.605362,439.964478 
	C205.817261,445.349243 208.092285,448.015137 213.533447,447.308289 
	C221.125366,446.322052 228.720520,445.347839 236.291275,444.214783 
	C243.879257,443.079102 251.262070,442.295013 258.784241,445.349915 
	C272.041199,450.733948 285.949677,452.421173 300.285614,452.373077 
	C306.603210,452.351868 311.598175,451.449493 315.420898,446.304779 
	C316.764252,444.496887 319.424469,442.705750 319.364685,440.980408 
	C319.078033,432.707947 318.065399,424.460632 317.327698,416.390625 
	C310.689484,416.390625 304.430420,416.390625 297.694092,416.390625 
	C296.413116,378.248016 295.134857,340.187256 293.848267,301.877716 
	C300.375793,302.722229 306.355682,303.495880 312.494354,304.290070 
	C312.494354,294.359192 312.494354,285.180054 312.494354,275.523712 
	C296.635803,282.655884 281.053162,287.607635 264.318573,278.133545 
	C266.440735,274.663269 268.318024,271.593475 270.280090,268.385010 
	C277.662598,272.569916 285.181396,272.835266 292.755463,270.554657 
	C297.347473,269.171906 302.058868,267.683502 306.170654,265.300476 
	C319.528992,257.558472 332.727081,249.528381 345.817566,241.338593 
	C365.093262,229.279175 384.223175,216.986694 403.491058,204.745270 
	C397.808289,193.548920 390.403107,189.920517 377.460724,193.064377 
	C373.305267,194.073807 369.122742,195.528152 365.377228,197.561234 
	C355.310730,203.025406 345.291321,208.624832 335.625946,214.757996 
	C331.127991,217.612167 329.437347,213.582016 326.537231,212.476990 
	C323.989502,211.506241 324.037781,209.769913 324.601410,207.272629 
	C329.760986,184.412354 334.741882,161.511688 339.746765,138.616638 
	C341.612183,130.083237 343.403137,121.533585 345.620300,111.155205 
	C338.798553,116.902840 335.517090,112.250099 331.730072,109.110298 
	C327.672729,105.746376 323.524628,102.491943 318.991943,98.848763 
	C312.991058,125.934448 307.109985,152.479355 301.269318,178.841827 
	C297.212219,178.841827 293.737427,178.841827 289.959534,178.841827 
	C289.617981,177.056244 289.269592,175.457764 289.010071,173.844971 
	C284.384888,145.101639 279.809540,116.350090 275.045319,87.629875 
	C274.791107,86.097572 273.241058,84.090302 271.822540,83.555641 
	C263.970367,80.596054 256.395844,81.799431 249.491013,86.397499 
	C248.352921,87.155388 247.394302,89.416573 247.608704,90.786430 
	C250.772614,111.000885 254.150070,131.181885 257.474762,151.371185 
	C259.415680,163.157578 261.352875,174.944565 263.329620,186.961594 
	C259.528687,188.257462 256.114624,189.421432 252.464157,190.666000 
	C251.533096,188.839035 250.694260,187.241150 249.897537,185.622498 
	C236.186890,157.767593 222.427292,129.936478 208.847519,102.017883 
	C207.258835,98.751740 205.546326,97.792107 201.958954,98.470406 
	C195.677185,99.658180 190.336334,102.247597 185.904846,106.848595 
	C183.102676,109.757942 182.285034,112.426353 184.320312,116.529373 
	C196.269318,140.618057 207.885056,164.872116 219.601227,189.076187 
	C221.539291,193.079941 223.418594,197.112122 225.397308,201.283478 
	C222.131165,203.509872 219.160095,205.535126 215.758835,207.853622 
	C214.231552,206.113068 212.973190,204.581223 211.613892,203.144882 
	C194.550980,185.114624 177.362350,167.201035 160.500320,148.985062 
	C157.400696,145.636551 155.042679,145.615448 151.610306,147.747375 
	C145.878098,151.307816 141.938721,156.240402 139.391052,162.435516 
	C138.193817,165.346802 138.463165,167.555145 140.814896,169.959778 
	C146.869705,176.150787 152.629349,182.630463 158.992645,189.508011 
M353.419525,435.526947 
	C352.076996,436.246857 350.503845,436.719849 349.427704,437.724976 
	C338.956512,447.505127 328.608063,457.416962 318.106964,467.164551 
	C316.780914,468.395386 314.751099,469.673920 313.091888,469.617554 
	C292.686523,468.924347 272.082672,469.558228 252.676804,461.352966 
	C250.622833,460.484528 248.122696,460.099030 245.903931,460.302185 
	C239.776962,460.863068 233.701782,461.964996 227.583557,462.652008 
	C216.606781,463.884552 206.187973,466.633850 195.427872,458.628052 
	C186.289215,451.828674 177.811508,445.354767 173.211060,434.802856 
	C171.849365,431.679565 169.878296,431.377838 166.932190,432.098877 
	C157.084946,434.508850 147.194717,436.742889 137.323135,439.053711 
	C120.168671,443.069427 102.765808,446.263153 85.931381,451.340820 
	C68.477478,456.605347 51.569748,463.683807 34.442604,470.021515 
	C33.252167,470.462006 31.724024,471.072174 31.198324,472.055481 
	C27.009817,479.889679 23.025671,487.833160 18.945824,495.807709 
	C177.450119,495.807709 335.423004,495.807709 494.548950,495.807709 
	C474.844757,484.814972 456.180481,474.385529 437.484192,464.013794 
	C436.354523,463.387085 434.985992,463.151337 433.701355,462.849579 
	C413.159607,458.024292 392.682465,453.047119 373.485687,443.890076 
	C367.201904,440.892670 360.619141,438.522064 353.419525,435.526947 
z"/>
<path fill="#FDFDFD" opacity="1.000000" stroke="none" 
	d="
M158.749786,189.251404 
	C152.629349,182.630463 146.869705,176.150787 140.814896,169.959778 
	C138.463165,167.555145 138.193817,165.346802 139.391052,162.435516 
	C141.938721,156.240402 145.878098,151.307816 151.610306,147.747375 
	C155.042679,145.615448 157.400696,145.636551 160.500320,148.985062 
	C177.362350,167.201035 194.550980,185.114624 211.613892,203.144882 
	C212.973190,204.581223 214.231552,206.113068 215.758835,207.853622 
	C219.160095,205.535126 222.131165,203.509872 225.397308,201.283478 
	C223.418594,197.112122 221.539291,193.079941 219.601227,189.076187 
	C207.885056,164.872116 196.269318,140.618057 184.320312,116.529373 
	C182.285034,112.426353 183.102676,109.757942 185.904846,106.848595 
	C190.336334,102.247597 195.677185,99.658180 201.958954,98.470406 
	C205.546326,97.792107 207.258835,98.751740 208.847519,102.017883 
	C222.427292,129.936478 236.186890,157.767593 249.897537,185.622498 
	C250.694260,187.241150 251.533096,188.839035 252.464157,190.666000 
	C256.114624,189.421432 259.528687,188.257462 263.329620,186.961594 
	C261.352875,174.944565 259.415680,163.157578 257.474762,151.371185 
	C254.150070,131.181885 250.772614,111.000885 247.608704,90.786430 
	C247.394302,89.416573 248.352921,87.155388 249.491013,86.397499 
	C256.395844,81.799431 263.970367,80.596054 271.822540,83.555641 
	C273.241058,84.090302 274.791107,86.097572 275.045319,87.629875 
	C279.809540,116.350090 284.384888,145.101639 289.010071,173.844971 
	C289.269592,175.457764 289.617981,177.056244 289.959534,178.841827 
	C293.737427,178.841827 297.212219,178.841827 301.269318,178.841827 
	C307.109985,152.479355 312.991058,125.934448 318.991943,98.848763 
	C323.524628,102.491943 327.672729,105.746376 331.730072,109.110298 
	C335.517090,112.250099 338.798553,116.902840 345.620300,111.155205 
	C343.403137,121.533585 341.612183,130.083237 339.746765,138.616638 
	C334.741882,161.511688 329.760986,184.412354 324.601410,207.272629 
	C324.037781,209.769913 323.989502,211.506241 326.537231,212.476990 
	C329.437347,213.582016 331.127991,217.612167 335.625946,214.757996 
	C345.291321,208.624832 355.310730,203.025406 365.377228,197.561234 
	C369.122742,195.528152 373.305267,194.073807 377.460724,193.064377 
	C390.403107,189.920517 397.808289,193.548920 403.491058,204.745270 
	C384.223175,216.986694 365.093262,229.279175 345.817566,241.338593 
	C332.727081,249.528381 319.528992,257.558472 306.170654,265.300476 
	C302.058868,267.683502 297.347473,269.171906 292.755463,270.554657 
	C285.181396,272.835266 277.662598,272.569916 270.280090,268.385010 
	C268.318024,271.593475 266.440735,274.663269 264.318573,278.133545 
	C281.053162,287.607635 296.635803,282.655884 312.494354,275.523712 
	C312.494354,285.180054 312.494354,294.359192 312.494354,304.290070 
	C306.355682,303.495880 300.375793,302.722229 293.848267,301.877716 
	C295.134857,340.187256 296.413116,378.248016 297.694092,416.390625 
	C304.430420,416.390625 310.689484,416.390625 317.327698,416.390625 
	C318.065399,424.460632 319.078033,432.707947 319.364685,440.980408 
	C319.424469,442.705750 316.764252,444.496887 315.420898,446.304779 
	C311.598175,451.449493 306.603210,452.351868 300.285614,452.373077 
	C285.949677,452.421173 272.041199,450.733948 258.784241,445.349915 
	C251.262070,442.295013 243.879257,443.079102 236.291275,444.214783 
	C228.720520,445.347839 221.125366,446.322052 213.533447,447.308289 
	C208.092285,448.015137 205.817261,445.349243 206.605362,439.964478 
	C211.472153,406.712494 216.555618,373.487061 220.899475,340.165771 
	C223.371124,321.205902 224.457520,302.067841 226.545212,283.051514 
	C226.738800,281.288147 229.437958,279.440582 231.367065,278.293762 
	C237.375488,274.721802 238.116470,272.102020 235.495712,265.800201 
	C234.169983,262.612396 232.035400,262.539032 229.552475,262.887543 
	C226.234177,263.353210 224.617935,261.957977 223.035675,259.079102 
	C221.514099,256.310638 218.853043,254.159454 216.650772,251.775742 
	C209.302322,243.821930 201.995407,235.828094 194.533646,227.981720 
	C192.609207,225.958115 191.969879,224.313843 193.118027,221.503403 
	C195.542862,215.567993 193.748901,212.645416 187.802948,210.510788 
	C186.222916,209.943542 184.848007,207.991028 184.025665,206.350372 
	C183.160980,204.625244 183.071747,202.511429 182.645142,200.564987 
	C182.371017,200.387253 182.048447,200.012955 181.826553,200.065308 
	C171.446045,202.514832 164.513702,197.544540 158.749786,189.251404 
M268.407166,366.219055 
	C269.451019,367.201477 270.494873,368.183868 271.538116,369.165741 
	C264.157074,377.005951 265.206146,386.939606 268.452850,394.158661 
	C271.761810,401.516174 280.129425,406.598572 286.282166,412.677124 
	C286.679840,412.355011 287.077515,412.032928 287.475189,411.710815 
	C286.296234,376.571625 285.117279,341.432434 283.943726,306.453766 
	C277.162964,308.415161 274.426849,313.136719 272.828491,319.093842 
	C271.501251,324.040466 269.498932,328.805939 267.783997,333.684875 
	C265.312683,333.797241 263.022949,333.901337 260.338440,334.023407 
	C260.338440,339.597015 260.823822,344.956696 260.219635,350.190643 
	C259.404053,357.255615 261.574738,362.391602 268.407166,366.219055 
z"/>
<path fill="#FEFEFE" opacity="1.000000" stroke="none" 
	d="
M353.796326,435.695892 
	C360.619141,438.522064 367.201904,440.892670 373.485687,443.890076 
	C392.682465,453.047119 413.159607,458.024292 433.701355,462.849579 
	C434.985992,463.151337 436.354523,463.387085 437.484192,464.013794 
	C456.180481,474.385529 474.844757,484.814972 494.548950,495.807709 
	C335.423004,495.807709 177.450119,495.807709 18.945824,495.807709 
	C23.025671,487.833160 27.009817,479.889679 31.198324,472.055481 
	C31.724024,471.072174 33.252167,470.462006 34.442604,470.021515 
	C51.569748,463.683807 68.477478,456.605347 85.931381,451.340820 
	C102.765808,446.263153 120.168671,443.069427 137.323135,439.053711 
	C147.194717,436.742889 157.084946,434.508850 166.932190,432.098877 
	C169.878296,431.377838 171.849365,431.679565 173.211060,434.802856 
	C177.811508,445.354767 186.289215,451.828674 195.427872,458.628052 
	C206.187973,466.633850 216.606781,463.884552 227.583557,462.652008 
	C233.701782,461.964996 239.776962,460.863068 245.903931,460.302185 
	C248.122696,460.099030 250.622833,460.484528 252.676804,461.352966 
	C272.082672,469.558228 292.686523,468.924347 313.091888,469.617554 
	C314.751099,469.673920 316.780914,468.395386 318.106964,467.164551 
	C328.608063,457.416962 338.956512,447.505127 349.427704,437.724976 
	C350.503845,436.719849 352.076996,436.246857 353.796326,435.695892 
z"/>
<path fill="#050505" opacity="1.000000" stroke="none" 
	d="
M268.107666,366.006958 
	C261.574738,362.391602 259.404053,357.255615 260.219635,350.190643 
	C260.823822,344.956696 260.338440,339.597015 260.338440,334.023407 
	C263.022949,333.901337 265.312683,333.797241 267.783997,333.684875 
	C269.498932,328.805939 271.501251,324.040466 272.828491,319.093842 
	C274.426849,313.136719 277.162964,308.415161 283.943726,306.453766 
	C285.117279,341.432434 286.296234,376.571625 287.475189,411.710815 
	C287.077515,412.032928 286.679840,412.355011 286.282166,412.677124 
	C280.129425,406.598572 271.761810,401.516174 268.452850,394.158661 
	C265.206146,386.939606 264.157074,377.005951 271.538116,369.165741 
	C270.494873,368.183868 269.451019,367.201477 268.107666,366.006958 
z"/>
</svg>